<?xml version="1.0" encoding="UTF-8" standalone="no"?>
<svg width="51px" height="49px" viewBox="0 0 51 49" version="1.1" xmlns="http://www.w3.org/2000/svg" xmlns:xlink="http://www.w3.org/1999/xlink">
    <!-- Generator: Sketch 46.2 (44496) - http://www.bohemiancoding.com/sketch -->
    <title>Formstack_CMYK</title>
    <desc>Created with Sketch.</desc>
    <defs>
        <path d="M35.4127547,0.81 C35.3541474,0.810654808 35.2945354,0.813956619 35.234,0.82 C27.078,1.637 23,2.047 14.844,2.861 C8.796,8.668 5.899,11.422 0.293,16.613 C-0.251,27.422 -0.077,32.859 1.151,43.625 C1.276,44.721 2.357,45.701 3.549,45.82 C16.0571545,47.0712102 22.3901485,47.7060727 34.733809,48.9399997 L35.9002644,48.94 C36.7202645,48.7187614 37.2316524,47.9090588 37.114,46.879 C35.452,32.287 35.453,17.521 37.114,2.93 C37.2507458,1.72644952 36.5277886,0.822040593 35.4561908,0.809999997 L35.4127547,0.81 L35.4127547,0.81 Z" id="path-1"></path>
        <linearGradient x1="50%" y1="0%" x2="50%" y2="100%" id="linearGradient-3">
            <stop stop-color="#7AB631" offset="0%"></stop>
            <stop stop-color="#3A9533" offset="100%"></stop>
        </linearGradient>
    </defs>
    <g id="Page-1" stroke="none" stroke-width="1" fill="none" fill-rule="evenodd">
        <g id="Formstack_CMYK">
            <path d="M49.354,8.648 C40.195,8.648 35.614,8.648 26.456,8.648 C25.594,8.648 24.808,9.342 24.711,10.203 C23.371,21.928 23.373,27.881 24.711,39.605 C24.809,40.465 25.594,41.158 26.456,41.158 C35.614,41.16 40.195,41.162 49.354,41.16 C50.215,41.16 50.822,40.465 50.725,39.605 C49.386,27.881 49.386,21.928 50.725,10.203 C50.822,9.342 50.215,8.648 49.354,8.648" id="Fill-12" fill="#CBDE95"></path>
            <path d="M42.257,5.107 C31.485,5.647 26.1,5.914 15.325,6.453 C14.311,6.504 13.389,7.33 13.28,8.303 C11.768,21.541 11.768,28.268 13.28,41.508 C13.389,42.479 14.311,43.307 15.325,43.358 C26.1,43.895 31.485,44.164 42.257,44.703 C43.272,44.754 43.987,43.941 43.867,42.891 C42.228,28.547 42.228,21.26 43.867,6.916 C43.987,5.865 43.272,5.057 42.257,5.107" id="Fill-13" fill="#A2C439"></path>
            <g id="Group-16">
                <mask id="mask-2" fill="white">
                    <use xlink:href="#path-1"></use>
                </mask>
                <g id="Clip-15"></g>
                <polygon id="Fill-14" fill="url(#linearGradient-3)" mask="url(#mask-2)" points="0 48.94 275.257 48.94 275.257 0.81 0 0.81"></polygon>
            </g>
            <path d="M5.403,41.836 C10.793,42.268 13.489,42.483 18.879,42.916 C18.517,39.322 18.379,37.521 18.199,33.918 C12.825,33.701 10.139,33.594 4.765,33.377 C4.935,36.766 5.063,38.459 5.403,41.836" id="Fill-17" fill="#FFFFFE"></path>
            <path d="M4.606,29.143 C13.556,29.322 18.03,29.412 26.98,29.592 C26.885,25.842 26.885,23.967 26.98,20.217 C18.03,20.395 13.557,20.488 4.606,20.67 C4.521,24.061 4.521,25.752 4.606,29.143" id="Fill-18" fill="#FFFFFE"></path>
            <path d="M14.844,2.861 C8.796,8.668 5.899,11.422 0.293,16.613 C3.929,15.514 5.75,14.945 9.405,13.766 C9.838,13.625 10.254,13.383 10.611,13.039 C10.967,12.693 11.222,12.295 11.375,11.875 C12.67,8.305 13.363,6.502 14.844,2.861" id="Fill-19" fill="#CBDE95"></path>
            <path d="M10.995,16.18 C11.681,16.15 12.381,15.871 12.934,15.332 C13.487,14.793 13.79,14.1 13.834,13.422 C14.111,9.189 14.312,7.076 14.844,2.861 C13.363,6.502 12.67,8.305 11.375,11.875 C11.222,12.295 10.967,12.693 10.611,13.039 C10.254,13.383 9.838,13.625 9.405,13.766 C5.75,14.945 3.929,15.514 0.293,16.613 C4.574,16.439 6.714,16.352 10.995,16.18" id="Fill-20" fill="#3A8A38"></path>
            <path d="M14.347,7.256 C14.099,9.723 13.995,10.953 13.834,13.422 C13.79,14.1 13.487,14.793 12.934,15.332 C12.381,15.871 11.681,16.15 10.995,16.18 C19.253,15.846 23.381,15.682 31.639,15.352 C31.831,11.529 31.977,9.619 32.362,5.809 C25.156,6.387 21.553,6.678 14.347,7.256" id="Fill-21" fill="#FFFFFE"></path>
        </g>
    </g>
</svg>